# xmcd CD database file
#
# Track frame offsets:
#	150
#	12535
#	26284
#	46393
#	59922
#	72689
#	85230
#	100888
#	120218
#	134011
#	145217
#	163590
#	177992
#	190876
#	198732
#	215517
#
# Disc length: 3126 seconds
#
# Revision: 0
# Processed by: cddbd v1.5.2PL0 Copyright (c) Steve Scherf et al.
# Submitted via: CDex 1.70beta2
#
DISCID=f50c3410
DTITLE=EB-TBB - El Barrio - The Bad Boogaloo
DYEAR=1900
DGENRE=Jazz
TTITLE0=Fever - La Lupe
TTITLE1=Gimme Some Love - Joe Cuba Sextet
TTITLE2=Morris Park - Lenni Sesar
TTITLE3=Come and Get It - Ralph Robles
TTITLE4=Bad Breath - Bobby Valentin
TTITLE5=Mercy Mercy Baby - Ray Barretto
TTITLE6=Ay Que Rico - Eddie Palmieri
TTITLE7=King of Latin Soul - Joey Pastrana
TTITLE8=Happu Soul With A Hook - Dave Cortez wt. the Moon People
TTITLE9=Mama's Firl - King Nando
TTITLE10=Marilu - George Guzman
TTITLE11=Baby Boo Boogaloo - Vladimir and his Orchestra
TTITLE12=Camel Walk - Teh Latinaires
TTITLE13=Jumpin' wt. Symphony Sid - Ray Rodriguez and his Orchestra
TTITLE14=What You Mean - Johnny Colon
TTITLE15=Guahira Con Soul - Johnny Ventura
EXTD=
EXTT0=
EXTT1=
EXTT2=
EXTT3=
EXTT4=
EXTT5=
EXTT6=
EXTT7=
EXTT8=
EXTT9=
EXTT10=
EXTT11=
EXTT12=
EXTT13=
EXTT14=
EXTT15=
PLAYORDER=
